<?xml version="1.0" encoding="UTF-8"?>
<svg version="1.1" xmlns="http://www.w3.org/2000/svg" width="512" height="512">
<path d="M0 0 C1.45108658 0.00273422 1.45108658 0.00273422 2.93148804 0.00552368 C17.26440977 0.05095174 31.21023917 0.55983928 45.3125 3.3125 C46.65803955 3.55395752 46.65803955 3.55395752 48.03076172 3.80029297 C85.03501566 10.49617831 119.54304606 25.87828957 150.3125 47.3125 C156.06974122 42.54045514 161.32033912 37.39059795 166.5625 32.0625 C168.1486907 30.45080785 169.73713422 28.8413289 171.328125 27.234375 C172.36888184 26.17621582 172.36888184 26.17621582 173.43066406 25.09667969 C176.35331281 22.32569927 178.50900512 20.96897494 182.5 20.75 C186.38575867 20.89868968 188.19414324 21.63604429 191.03344727 24.27612305 C191.723992 24.91367523 192.41453674 25.55122742 193.12600708 26.20809937 C196.98462542 29.92184516 200.80763707 33.66535686 204.58984375 37.45703125 C205.44179825 38.30802902 206.29375275 39.15902679 207.17152405 40.03581238 C208.956805 41.82041706 210.74084072 43.60626824 212.52368164 45.39331055 C215.26269661 48.13772162 218.00705952 50.87670432 220.75195312 53.61523438 C222.48990442 55.35384577 224.22754586 57.09276695 225.96484375 58.83203125 C226.78766342 59.65282669 227.61048309 60.47362213 228.45823669 61.31929016 C229.59060509 62.4563868 229.59060509 62.4563868 230.74584961 63.61645508 C231.41233017 64.28373123 232.07881073 64.95100739 232.76548767 65.63850403 C235.64259246 68.75177063 235.97699151 71.64859107 235.87890625 75.78125 C234.81790826 80.52281341 231.40373718 83.37857224 228.00097656 86.67089844 C225.95096141 88.66400166 223.94111444 90.69453195 221.9296875 92.7265625 C217.7462828 96.9445915 213.53681212 101.13547225 209.3125 105.3125 C212.17646803 110.59130204 215.14998967 115.69705309 218.5 120.6875 C235.45369992 146.72468955 246.36272546 176.33978508 252.625 206.6875 C252.77243652 207.39817627 252.91987305 208.10885254 253.07177734 208.84106445 C256.05713787 224.48358366 256.6873098 240.11919606 256.625 256 C256.62226578 257.45108658 256.62226578 257.45108658 256.61947632 258.93148804 C256.57404826 273.26440977 256.06516072 287.21023917 253.3125 301.3125 C253.15152832 302.20952637 252.99055664 303.10655273 252.82470703 304.03076172 C242.00212011 363.84088904 207.94435543 421.35495829 159.3125 458.3125 C158.77222168 458.72918945 158.23194336 459.14587891 157.67529297 459.57519531 C147.6802884 467.2584873 137.22040964 474.00092968 126.3125 480.3125 C125.63525879 480.70679199 124.95801758 481.10108398 124.26025391 481.50732422 C101.3416244 494.68961173 75.76677437 503.29510918 49.9375 508.625 C49.22682373 508.77243652 48.51614746 508.91987305 47.78393555 509.07177734 C32.14141634 512.05713787 16.50580394 512.6873098 0.625 512.625 C-0.34239105 512.62317719 -1.3097821 512.62135437 -2.30648804 512.61947632 C-16.63940977 512.57404826 -30.58523917 512.06516072 -44.6875 509.3125 C-45.58452637 509.15152832 -46.48155273 508.99055664 -47.40576172 508.82470703 C-107.21588904 498.00212011 -164.72995829 463.94435543 -201.6875 415.3125 C-202.10418945 414.77222168 -202.52087891 414.23194336 -202.95019531 413.67529297 C-210.6334873 403.6802884 -217.37592968 393.22040964 -223.6875 382.3125 C-224.08179199 381.63525879 -224.47608398 380.95801758 -224.88232422 380.26025391 C-238.06461173 357.3416244 -246.67010918 331.76677437 -252 305.9375 C-252.14743652 305.22682373 -252.29487305 304.51614746 -252.44677734 303.78393555 C-255.43213787 288.14141634 -256.0623098 272.50580394 -256 256.625 C-255.99817719 255.65760895 -255.99635437 254.6902179 -255.99447632 253.69351196 C-255.94904826 239.36059023 -255.44016072 225.41476083 -252.6875 211.3125 C-252.44604248 209.96696045 -252.44604248 209.96696045 -252.19970703 208.59423828 C-241.37712011 148.78411096 -207.31935543 91.27004171 -158.6875 54.3125 C-158.14722168 53.89581055 -157.60694336 53.47912109 -157.05029297 53.04980469 C-147.0552884 45.3665127 -136.59540964 38.62407032 -125.6875 32.3125 C-125.01025879 31.91820801 -124.33301758 31.52391602 -123.63525391 31.11767578 C-100.7166244 17.93538827 -75.14177437 9.32989082 -49.3125 4 C-48.60182373 3.85256348 -47.89114746 3.70512695 -47.15893555 3.55322266 C-31.51641634 0.56786213 -15.88080394 -0.0623098 0 0 Z " fill="#017295" transform="translate(255.6875,-0.3125)"/>
<path d="M0 0 C1.89381409 1.26469421 1.89381409 1.26469421 3.72094727 2.96362305 C4.75676437 3.91995132 4.75676437 3.91995132 5.81350708 4.89559937 C9.67212542 8.60934516 13.49513707 12.35285686 17.27734375 16.14453125 C18.12929825 16.99552902 18.98125275 17.84652679 19.85902405 18.72331238 C21.644305 20.50791706 23.42834072 22.29376824 25.21118164 24.08081055 C27.95019661 26.82522162 30.69455952 29.56420432 33.43945312 32.30273438 C35.17740442 34.04134577 36.91504586 35.78026695 38.65234375 37.51953125 C39.47516342 38.34032669 40.29798309 39.16112213 41.14573669 40.00679016 C42.27810509 41.1438868 42.27810509 41.1438868 43.43334961 42.30395508 C44.09983017 42.97123123 44.76631073 43.63850739 45.45298767 44.32600403 C48.33105431 47.44031144 48.66700158 50.33831269 48.5625 54.47265625 C47.50647636 59.21742913 44.10448561 62.047868 40.70068359 65.34179688 C38.66228668 67.32927776 36.67004888 69.35887599 34.67578125 71.390625 C31.59506268 74.5144417 28.51026411 77.63369394 25.40234375 80.73046875 C24.74741943 81.38426514 24.09249512 82.03806152 23.41772461 82.71166992 C21.46061008 84.56404138 19.47331835 86.31859276 17.4286499 88.07077885 C12.65980103 92.23684195 8.19216493 96.67187691 3.72387695 101.15586853 C2.82274359 102.05614747 1.92161022 102.95642641 0.99316978 103.88398653 C-1.48794381 106.36288019 -3.96595563 108.84485373 -6.44343972 111.3273741 C-9.12316679 114.01144167 -11.80580603 116.69259594 -14.48808289 119.37411499 C-19.1282737 124.01378285 -23.76663803 128.65527013 -28.40374756 133.2980175 C-35.1081355 140.01055136 -41.81530096 146.72030429 -48.52313566 153.4293936 C-59.40751906 164.31596266 -70.28966996 175.20476047 -81.17041016 186.0949707 C-91.7366175 196.67036473 -102.30388033 207.24470225 -112.87255859 217.81762695 C-113.52460884 218.46993992 -114.17665908 219.12225289 -114.84846842 219.79433291 C-118.11979772 223.0669673 -121.39114772 226.339581 -124.66250801 229.61218441 C-151.77821518 256.73824907 -178.89029644 283.86793543 -206 311 C-209.78946188 309.23447138 -212.4103012 306.86021844 -215.31933594 303.90771484 C-215.83685928 303.39048355 -216.35438263 302.87325226 -216.8875885 302.34034729 C-218.59130289 300.63524329 -220.28782978 298.92317232 -221.984375 297.2109375 C-223.16649407 296.025087 -224.34905645 294.83967826 -225.53204346 293.6546936 C-228.64028728 290.53882362 -231.74247737 287.41699366 -234.84344482 284.29388428 C-238.01048502 281.10636381 -241.18321387 277.9245168 -244.35546875 274.7421875 C-250.57589403 268.50033024 -256.78993537 262.25216515 -263 256 C-261.56438588 252.72159722 -259.80141881 250.55325195 -257.27516651 248.03186417 C-256.4952207 247.24855295 -255.71527488 246.46524174 -254.91169435 245.65819383 C-254.05072245 244.80372973 -253.18975055 243.94926564 -252.3026886 243.06890869 C-251.39120298 242.15641979 -250.47971736 241.24393089 -249.54061097 240.30379081 C-247.00916567 237.76981129 -244.47152534 235.2421158 -241.93285239 232.71538019 C-239.19631195 229.98952314 -236.46555517 227.25788313 -233.7341156 224.5269165 C-228.99880922 219.79397381 -224.25990704 215.06465628 -219.51861 210.33771515 C-212.65534471 203.49513134 -205.79808606 196.64655348 -198.94237521 189.79640171 C-187.8087927 178.67207947 -176.67111786 167.55186425 -165.53051758 156.43457031 C-164.53012178 155.43626448 -164.53012178 155.43626448 -163.50951596 154.41779086 C-162.8417734 153.75144383 -162.17403083 153.08509679 -161.48605365 152.39855742 C-152.03012154 142.96237132 -142.57514289 133.52523127 -133.12133789 124.08691406 C-132.45673415 123.42340117 -131.79213041 122.75988828 -131.10738716 122.07626894 C-120.01677123 111.00369115 -108.92819523 99.92907193 -97.84066075 88.85340858 C-91.00383241 82.0241622 -84.16493526 75.19699942 -77.32332953 68.37253901 C-72.63178586 63.69258629 -67.94195475 59.0109222 -63.25345001 54.327925 C-60.55014184 51.6279399 -57.84599973 48.9288037 -55.13961411 46.23190308 C-52.20109513 43.30366377 -49.26650159 40.3715209 -46.33222961 37.43902588 C-45.48241133 36.59348467 -44.63259304 35.74794346 -43.75702268 34.87677979 C-39.48593628 30.60161262 -35.3681837 26.25634756 -31.43748158 21.66511321 C-29.54167388 19.46909589 -27.53368261 17.40418002 -25.484375 15.3515625 C-24.70835937 14.57425781 -23.93234375 13.79695313 -23.1328125 12.99609375 C-22.34648437 12.21363281 -21.56015625 11.43117188 -20.75 10.625 C-19.94820312 9.81933594 -19.14640625 9.01367188 -18.3203125 8.18359375 C-17.54945313 7.41402344 -16.77859375 6.64445312 -15.984375 5.8515625 C-15.29053711 5.15885254 -14.59669922 4.46614258 -13.88183594 3.75244141 C-9.41477307 -0.40746742 -5.87190466 -1.11303112 0 0 Z " fill="#FCBE42" transform="translate(443,21)"/>
<path d="M0 0 C3.3743506 1.43824011 5.74072789 4.09432655 8.28942871 6.65512085 C9.13344238 7.45659546 9.13344238 7.45659546 9.99450684 8.27426147 C11.59020996 9.8621521 11.59020996 9.8621521 13.97692871 12.84262085 C13.74806887 16.51894919 11.96088426 18.14096086 9.31164551 20.53109741 C8.5380217 21.2399408 7.76439789 21.94878418 6.96733093 22.67910767 C6.12874039 23.43947327 5.29014984 24.19983887 4.42614746 24.98324585 C2.67685685 26.62637308 0.93019125 28.27229857 -0.81408691 29.92074585 C-3.56817195 32.51455841 -6.33199982 35.0894073 -9.14440918 37.6199646 C-19.38878174 45.94669329 -19.38878174 45.94669329 -25.43878174 57.08184814 C-25.15269289 62.08953664 -23.02016038 66.31120322 -21.02307129 70.84262085 C-20.44971791 74.71507653 -20.44261584 78.49624011 -20.52307129 82.40512085 C-20.53588135 83.38472778 -20.54869141 84.36433472 -20.56188965 85.37362671 C-21.1294592 105.85497185 -29.97625965 123.37211605 -44.64807129 137.46762085 C-62.13572297 152.59859053 -82.49198235 156.23429266 -105.02307129 154.84262085 C-122.79151759 152.67555552 -138.36527629 141.9462317 -149.85510254 128.6668396 C-163.36425356 111.06843206 -167.40220544 90.34988578 -164.7388916 68.51254272 C-161.56988053 50.58596538 -150.27454203 34.78254652 -136.02307129 23.84262085 C-127.4736231 18.13284703 -119.04664763 14.36993283 -109.02307129 11.84262085 C-108.40746338 11.66827515 -107.79185547 11.49392944 -107.15759277 11.31430054 C-88.59366609 7.21210377 -68.96387464 12.32428833 -53.02307129 21.84262085 C-48.658938 24.92691584 -44.53591642 28.12241664 -40.99963379 32.1434021 C-40.34736816 32.70414429 -39.69510254 33.26488647 -39.02307129 33.84262085 C-35.58906474 33.48950752 -33.94922827 32.12024532 -31.60314941 29.68392944 C-30.95567749 29.02009247 -30.30820557 28.35625549 -29.64111328 27.67230225 C-28.95247192 26.95249176 -28.26383057 26.23268127 -27.55432129 25.49105835 C-26.08191877 23.98560181 -24.60925459 22.48040116 -23.13635254 20.97543335 C-20.82112394 18.59171852 -18.51008695 16.2041471 -16.20422363 13.81137085 C-13.97744781 11.50640434 -11.73571779 9.2168426 -9.49182129 6.92855835 C-8.80317993 6.2046994 -8.11453857 5.48084045 -7.4050293 4.73504639 C-6.75755737 4.07751373 -6.11008545 3.41998108 -5.44299316 2.74252319 C-4.87769897 2.15707733 -4.31240479 1.57163147 -3.72998047 0.96844482 C-2.02307129 -0.15737915 -2.02307129 -0.15737915 0 0 Z " fill="#85B7D1" transform="translate(244.0230712890625,78.15737915039063)"/>
<path d="M0 0 C3.04332765 1.3584202 5.12309151 2.88463024 7.453125 5.2578125 C8.071875 5.88300781 8.690625 6.50820313 9.328125 7.15234375 C9.96234375 7.80332031 10.5965625 8.45429687 11.25 9.125 C12.22453125 10.11306641 12.22453125 10.11306641 13.21875 11.12109375 C14.81711727 12.74296643 16.41061897 14.3693281 18 16 C16.52219602 19.42203391 14.6029517 21.64586211 11.97450066 24.271595 C11.12753683 25.12254092 10.280573 25.97348685 9.40794361 26.85021901 C8.4721598 27.78017713 7.536376 28.71013525 6.57223511 29.66827393 C5.57187998 30.66950106 4.57196441 31.67116753 3.57245171 32.67323565 C0.82227353 35.42789225 -1.93411275 38.17626312 -4.69153476 40.923666 C-7.66310243 43.88660863 -10.62890032 46.85531656 -13.59539795 49.82333374 C-18.7366244 54.96560964 -23.88150434 60.1042067 -29.02887344 65.24033356 C-36.47112787 72.66634409 -43.9078632 80.09786145 -51.3432567 87.53074083 C-63.40640769 99.58951298 -75.47401963 111.64381066 -87.54443359 123.6953125 C-99.27073259 135.40325761 -110.99493226 147.11329837 -122.71630859 158.82617188 C-123.43863608 159.54797391 -124.16096356 160.26977595 -124.90517975 161.01345077 C-128.52881811 164.63447908 -132.15241516 168.25554871 -135.77599168 171.87663889 C-165.84426047 201.92416927 -195.91976803 231.96444614 -226 262 C-227.1078354 261.05893615 -228.21444803 260.11643273 -229.32055664 259.17333984 C-230.24512413 258.38629166 -230.24512413 258.38629166 -231.18836975 257.58334351 C-233.71791903 255.37254722 -236.07881136 253.01599944 -238.4375 250.625 C-239.30246094 249.75101563 -240.16742188 248.87703125 -241.05859375 247.9765625 C-241.69925781 247.32429687 -242.33992187 246.67203125 -243 246 C-241.56438588 242.72159722 -239.80141881 240.55325195 -237.27516651 238.03186417 C-236.4952207 237.24855295 -235.71527488 236.46524174 -234.91169435 235.65819383 C-234.05072245 234.80372973 -233.18975055 233.94926564 -232.3026886 233.06890869 C-231.39120298 232.15641979 -230.47971736 231.24393089 -229.54061097 230.30379081 C-227.00916567 227.76981129 -224.47152534 225.2421158 -221.93285239 222.71538019 C-219.19631195 219.98952314 -216.46555517 217.25788313 -213.7341156 214.5269165 C-208.99880922 209.79397381 -204.25990704 205.06465628 -199.51861 200.33771515 C-192.65534471 193.49513134 -185.79808606 186.64655348 -178.94237521 179.79640171 C-167.8087927 168.67207947 -156.67111786 157.55186425 -145.53051758 146.43457031 C-144.53012178 145.43626448 -144.53012178 145.43626448 -143.50951596 144.41779086 C-142.8417734 143.75144383 -142.17403083 143.08509679 -141.48605365 142.39855742 C-132.03012154 132.96237132 -122.57514289 123.52523127 -113.12133789 114.08691406 C-112.45673415 113.42340117 -111.79213041 112.75988828 -111.10738716 112.07626894 C-100.01677123 101.00369115 -88.92819523 89.92907193 -77.84066075 78.85340858 C-71.00383241 72.0241622 -64.16493526 65.19699942 -57.32332953 58.37253901 C-52.63178586 53.69258629 -47.94195475 49.0109222 -43.25345001 44.327925 C-40.55014184 41.6279399 -37.84599973 38.9288037 -35.13961411 36.23190308 C-32.20109513 33.30366377 -29.26650159 30.3715209 -26.33222961 27.43902588 C-25.48241133 26.59348467 -24.63259304 25.74794346 -23.75702268 24.87677979 C-19.50046121 20.61615142 -15.39623739 16.2877438 -11.48354405 11.70807624 C-9.289204 9.18162609 -6.9450325 6.84989506 -4.5625 4.5 C-3.26505859 3.21609375 -3.26505859 3.21609375 -1.94140625 1.90625 C-1.30074219 1.2771875 -0.66007813 0.648125 0 0 Z " fill="#FB9302" transform="translate(423,31)"/>
<path d="M0 0 C10.32918687 6.83411458 10.32918687 6.83411458 12.40261841 11.58039856 C12.5859375 13.7109375 12.5859375 13.7109375 11.25924683 15.66581726 C10.57927643 16.34674942 9.89930603 17.02768158 9.19873047 17.72924805 C8.43398407 18.50652756 7.66923767 19.28380707 6.88131714 20.0846405 C5.61748703 21.3285833 5.61748703 21.3285833 4.328125 22.59765625 C3.47292267 23.45527054 2.61772034 24.31288483 1.73660278 25.19648743 C-0.07840601 27.0105152 -1.89965825 28.81831401 -3.7265625 30.62036133 C-6.52237363 33.38195289 -9.2935118 36.16662125 -12.0625 38.95507812 C-13.82669569 40.71237359 -15.59227619 42.46828012 -17.359375 44.22265625 C-18.60498703 45.47570808 -18.60498703 45.47570808 -19.87576294 46.7540741 C-20.6594223 47.52189713 -21.44308167 48.28972015 -22.25048828 49.08081055 C-22.93523224 49.75935593 -23.6199762 50.43790131 -24.32546997 51.13700867 C-26.77552508 52.98332973 -28.3516468 53.57670306 -31.4140625 53.7109375 C-33.12733459 52.68554688 -33.12733459 52.68554688 -34.67211914 51.0546875 C-35.25945328 50.45076172 -35.84678741 49.84683594 -36.45191956 49.22460938 C-37.06977829 48.56009766 -37.68763702 47.89558594 -38.32421875 47.2109375 C-38.97353867 46.54126953 -39.62285858 45.87160156 -40.29185486 45.18164062 C-42.36826513 43.03845878 -44.42404213 40.87699337 -46.4765625 38.7109375 C-48.53348749 36.54580381 -50.59446275 34.38562477 -52.67198181 32.24023438 C-53.96533891 30.90437843 -55.24682364 29.55690783 -56.51515198 28.19726562 C-57.09933395 27.59333984 -57.68351593 26.98941406 -58.28540039 26.3671875 C-58.7943837 25.82900391 -59.303367 25.29082031 -59.82777405 24.73632812 C-61.38432213 23.49859977 -61.38432213 23.49859977 -63.43260193 23.8972168 C-66.62868116 25.20974145 -68.82956249 27.61396935 -71.2265625 30.0234375 C-71.74154297 30.51005859 -72.25652344 30.99667969 -72.78710938 31.49804688 C-74.44920528 33.09210928 -74.44920528 33.09210928 -76.4140625 35.7109375 C-76.17865408 39.54016563 -74.05299801 41.46773825 -71.44848633 44.11230469 C-70.60703568 44.9728949 -69.76558502 45.83348511 -68.89863586 46.72015381 C-67.98204697 47.64008118 -67.06545807 48.56000854 -66.12109375 49.5078125 C-65.17260352 50.46594586 -64.22433916 51.42430286 -63.27629089 52.38287354 C-61.28839552 54.38871847 -59.29440893 56.38827763 -57.29663086 58.38427734 C-54.74014122 60.94046196 -52.20491795 63.51666444 -49.67455006 66.09867477 C-47.72279245 68.08381753 -45.75752051 70.05514465 -43.78821373 72.0228653 C-42.3910205 73.42531084 -41.00749928 74.84133437 -39.6242218 76.25750732 C-38.76701035 77.10548889 -37.90979889 77.95347046 -37.02661133 78.82714844 C-36.27906082 79.578974 -35.53151031 80.33079956 -34.76130676 81.10540771 C-31.673792 83.21728716 -30.08712727 83.3448504 -26.4140625 82.7109375 C-23.70382883 80.86791592 -23.70382883 80.86791592 -21.23486328 78.21289062 C-20.75606216 77.73496567 -20.27726105 77.25704071 -19.78395081 76.76463318 C-18.21110972 75.18762508 -16.66056693 73.59047087 -15.109375 71.9921875 C-14.02067414 70.89229139 -12.93063743 69.79371605 -11.83932495 68.69641113 C-8.97524849 65.80946262 -6.1296483 62.90495191 -3.28753662 59.99639893 C-0.38233345 57.02973895 2.54000139 54.08006244 5.4609375 51.12890625 C11.18616633 45.33939342 16.89198598 39.53121334 22.5859375 33.7109375 C25.53543091 36.44171143 25.53543091 36.44171143 25.98999023 38.86474609 C26.00461304 40.0995874 26.00461304 40.0995874 26.01953125 41.359375 C26.03669189 42.73452271 26.03669189 42.73452271 26.05419922 44.13745117 C26.04404785 45.11045166 26.03389648 46.08345215 26.0234375 47.0859375 C26.01586426 48.08020752 26.00829102 49.07447754 26.00048828 50.09887695 C25.66343393 65.20850682 20.20708171 78.56560399 9.77734375 89.6484375 C-3.9594675 102.57720103 -19.58896596 106.45344212 -37.90625 106.0859375 C-49.3847342 105.53691537 -58.53534834 100.83307152 -67.4140625 93.7109375 C-68.04828125 93.23914063 -68.6825 92.76734375 -69.3359375 92.28125 C-79.48308037 84.33415138 -86.22333577 71.28898758 -88.4140625 58.7109375 C-88.72989772 55.10238928 -88.79527918 51.51965329 -88.7890625 47.8984375 C-88.78745117 46.92374512 -88.78583984 45.94905273 -88.78417969 44.94482422 C-88.66302758 37.84792356 -87.71273975 32.06776344 -84.4140625 25.7109375 C-84.1253125 25.02644531 -83.8365625 24.34195313 -83.5390625 23.63671875 C-77.23128885 9.30342951 -64.56003635 -0.42137982 -50.4140625 -6.2890625 C-33.84196109 -12.19755287 -14.84681299 -8.57719108 0 0 Z " fill="#027295" transform="translate(182.4140625,112.2890625)"/>
<path d="M0 0 C1.06541016 0.00902344 2.13082031 0.01804687 3.22851562 0.02734375 C5.84008034 0.05076586 8.45116937 0.08356548 11.0625 0.125 C10.57652344 1.18847656 10.09054688 2.25195312 9.58984375 3.34765625 C7.43184899 8.40501933 6.87234779 13.16249991 8.96484375 18.37109375 C9.66751788 19.73393148 10.40580857 21.07933321 11.1875 22.3984375 C12.0625 24.125 12.0625 24.125 12.0625 27.125 C10.10644531 29.3581543 10.10644531 29.3581543 7.390625 31.94921875 C6.40613274 32.90547825 5.42176174 33.86186261 4.4375 34.81835938 C2.88279205 36.31129894 1.32487532 37.80071965 -0.23632812 39.28686523 C-9.32498086 47.97070729 -14.26416531 53.70632866 -14.64453125 66.71484375 C-14.65871094 67.84019531 -14.67289063 68.96554687 -14.6875 70.125 C-14.73197266 71.85943359 -14.73197266 71.85943359 -14.77734375 73.62890625 C-14.84756109 76.46100562 -14.90049632 79.29230473 -14.9375 82.125 C-11.08250431 82.04357227 -7.22902725 81.93077646 -3.375 81.8125 C-2.28896484 81.78994141 -1.20292969 81.76738281 -0.08398438 81.74414062 C14.95182667 81.24142354 21.78174869 73.45858851 32 63.3125 C32.67546875 62.64186523 33.3509375 61.97123047 34.046875 61.28027344 C34.67980469 60.64508789 35.31273437 60.00990234 35.96484375 59.35546875 C36.53710693 58.78207764 37.10937012 58.20868652 37.69897461 57.61791992 C39.16312576 56.15122622 39.16312576 56.15122622 40.0625 54.125 C42.81504898 55.1774452 45.39446973 56.30157965 48 57.6875 C51.08537228 59.13573597 53.69484459 59.72408864 57.0625 60.125 C58.16898457 72.01970908 52.18859683 84.23128358 45.25 93.5625 C35.95195598 104.66016544 22.17430505 112.96540991 7.58642578 114.36206055 C-9.4181098 115.23015521 -22.32592348 113.04363872 -35.9375 102.125 C-36.57171875 101.65320313 -37.2059375 101.18140625 -37.859375 100.6953125 C-48.00651787 92.74821388 -54.74677327 79.70305008 -56.9375 67.125 C-57.25333522 63.51645178 -57.31871668 59.93371579 -57.3125 56.3125 C-57.31088867 55.33780762 -57.30927734 54.36311523 -57.30761719 53.35888672 C-57.18646508 46.26198606 -56.23617725 40.48182594 -52.9375 34.125 C-52.64875 33.44050781 -52.36 32.75601563 -52.0625 32.05078125 C-45.75472635 17.71749201 -33.08347385 7.99268268 -18.9375 2.125 C-12.60173296 -0.22510908 -6.65990856 -0.10748456 0 0 Z " fill="#027296" transform="translate(150.9375,293.875)"/>
<path d="M0 0 C6.61072987 5.4335882 12.59214196 11.46446043 18.62109375 17.5234375 C19.73188169 18.63609385 20.8428931 19.74852716 21.95411682 20.86074829 C24.85788934 23.7683127 27.75864436 26.67886905 30.65875244 29.59008789 C33.62678263 32.56840429 36.59769662 35.54384106 39.56835938 38.51953125 C45.38171083 44.34356123 51.19187334 50.1707595 57 56 C56.0587692 57.10519659 55.11650904 58.20951659 54.17382812 59.31347656 C53.64921997 59.92854065 53.12461182 60.54360474 52.58410645 61.17730713 C50.30801923 63.79620181 47.93309129 66.27495886 45.5 68.75 C44.6028125 69.67296875 43.705625 70.5959375 42.78125 71.546875 C36.88315713 76.74912546 30.75958991 78.39567314 23 78 C20.04018308 77.04897686 17.57806523 75.72073694 15 74 C14.01 73.34 13.02 72.68 12 72 C11.64095581 72.84582642 11.64095581 72.84582642 11.2746582 73.70874023 C9.72694572 76.49082827 7.8537607 78.4054894 5.60546875 80.66015625 C4.73212891 81.53607422 3.85878906 82.41199219 2.95898438 83.31445312 C2.04439453 84.22130859 1.12980469 85.12816406 0.1875 86.0625 C-0.71548828 86.97322266 -1.61847656 87.88394531 -2.54882812 88.82226562 C-3.42603516 89.69689453 -4.30324219 90.57152344 -5.20703125 91.47265625 C-6.0060083 92.26937744 -6.80498535 93.06609863 -7.62817383 93.88696289 C-13.08572493 98.74904265 -17.46982259 100.13579882 -24.640625 100.09765625 C-26.24550781 100.09282227 -26.24550781 100.09282227 -27.8828125 100.08789062 C-28.99398437 100.07951172 -30.10515625 100.07113281 -31.25 100.0625 C-32.93996094 100.05573242 -32.93996094 100.05573242 -34.6640625 100.04882812 C-37.44276217 100.03705397 -40.22135409 100.0206084 -43 100 C-43.11710979 96.00025019 -43.18755489 92.00094719 -43.25 88 C-43.28351563 86.87464844 -43.31703125 85.74929688 -43.3515625 84.58984375 C-43.46684761 74.73296704 -41.88144469 69.88324828 -35.08514404 62.72973633 C-32.52007749 60.10472715 -29.88677134 57.55261062 -27.25 55 C-26.15923042 53.92932781 -25.06937799 52.85772041 -23.98046875 51.78515625 C-21.33080768 49.17922915 -18.66893194 46.58620396 -16 44 C-16.35441162 43.33178223 -16.70882324 42.66356445 -17.07397461 41.97509766 C-17.53296143 41.08870605 -17.99194824 40.20231445 -18.46484375 39.2890625 C-18.92238037 38.41459473 -19.37991699 37.54012695 -19.85131836 36.63916016 C-21.59904095 32.62367 -21.82273666 29.28097798 -21 25 C-18.12492891 17.83118758 -13.78241334 13.29386816 -8.25 8 C-7.45722656 7.22527344 -6.66445312 6.45054687 -5.84765625 5.65234375 C-3.90728561 3.75872903 -1.9581852 1.87515713 0 0 Z " fill="#024C67" transform="translate(179,276)"/>
<path d="M0 0 C0.98677734 -0.020625 1.97355469 -0.04125 2.99023438 -0.0625 C10.07630125 -0.09962412 16.20664452 1.05628872 22.9375 3.25 C18.73828125 8.23046875 18.73828125 8.23046875 16.9375 10.25 C16.26976562 11.14332031 15.60203125 12.03664063 14.9140625 12.95703125 C10.47212126 16.37884162 6.45088876 15.82115011 1 15.75 C-13.28156543 15.98036587 -23.74827217 19.17419854 -35.0625 28.25 C-35.69671875 28.72179687 -36.3309375 29.19359375 -36.984375 29.6796875 C-46.33079912 36.99967454 -52.7520692 48.66227988 -55.0625 60.25 C-56.78081089 78.85782016 -53.90341371 95.43680507 -42 110.375 C-32.86094042 120.24681269 -19.58922551 127.97776397 -6.0234375 128.5859375 C11.84333328 128.87578083 27.51838549 125.88162826 41.09765625 113.21875 C51.68587451 101.88868205 55.63520411 89.16812865 57.9375 74.25 C58.51757812 74.07984375 59.09765625 73.9096875 59.6953125 73.734375 C60.47648438 73.49203125 61.25765625 73.2496875 62.0625 73 C62.82820312 72.76796875 63.59390625 72.5359375 64.3828125 72.296875 C67.53958982 71.00327206 70.15138118 69.20432103 72.9375 67.25 C73.86464395 86.84879284 69.08452359 104.75892655 56.08203125 119.94921875 C43.79612162 133.13027663 27.90979276 143.09177713 9.49658203 144.42700195 C-13.29006163 144.97431751 -31.68175428 141.2065709 -49.0625 125.25 C-61.79683706 113.04803489 -70.87030978 96.17983175 -71.30078125 78.2578125 C-71.74198794 55.04994513 -66.22707593 37.03257662 -49.82421875 19.9140625 C-39.79919542 10.29922834 -28.44515465 4.62425908 -15.0625 1.25 C-14.44979248 1.0749292 -13.83708496 0.8998584 -13.20581055 0.71948242 C-8.87994771 -0.22807815 -4.41026076 0.02242981 0 0 Z " fill="#85B7D1" transform="translate(150.0625,278.75)"/>
<path d="M0 0 C3.35353869 1.46817258 5.72580454 4.11256594 8.27115726 6.66999626 C9.11517094 7.47147087 9.11517094 7.47147087 9.97623539 8.28913689 C11.57193851 9.87702751 11.57193851 9.87702751 13.95865726 12.85749626 C13.7479627 16.66018989 11.63911026 18.56045984 9.04442692 21.17286491 C8.20189365 22.02819313 7.35936039 22.88352135 6.49129581 23.7647686 C5.55989277 24.69481209 4.62848972 25.62485558 3.66886234 26.5830822 C2.68278548 27.57813602 1.69732681 28.57380278 0.71244144 29.57003593 C-1.96436879 32.27335423 -4.65084866 34.96685978 -7.33998561 37.65791035 C-9.58390575 39.90467909 -11.82371541 42.15552495 -14.06373769 44.40617871 C-19.34823901 49.71510824 -24.64125373 55.01544786 -29.93904781 60.31110954 C-35.40540477 65.77566336 -40.85480221 71.2567329 -46.29652041 76.74581313 C-50.96870402 81.45720721 -55.65236481 86.15697895 -60.34515363 90.84784913 C-63.1480666 93.64999677 -65.94611255 96.45661693 -68.73273945 99.2749691 C-71.35349789 101.92474568 -73.98823861 104.55976757 -76.63444424 107.18412399 C-78.06513391 108.61017508 -79.48097476 110.05107476 -80.89633846 111.49233818 C-81.75297085 112.3363871 -82.60960323 113.18043602 -83.49219418 114.05006218 C-84.23017333 114.78967564 -84.96815248 115.52928909 -85.72849464 116.29131508 C-88.70430956 118.30643459 -90.51527378 118.27927165 -94.04134274 117.85749626 C-96.47797298 116.17603874 -96.47797298 116.17603874 -98.86922359 113.79011345 C-99.77293194 112.90209038 -100.67664028 112.01406731 -101.60773373 111.09913445 C-102.5745807 110.11823231 -103.54071512 109.13662739 -104.50618649 108.15437126 C-105.50796895 107.15409147 -106.51071511 106.15477595 -107.51438046 105.15638542 C-109.61100046 103.06409278 -111.69666733 100.96161796 -113.77498531 98.85114861 C-116.44209851 96.14417754 -119.13312537 93.46255925 -121.83253288 90.78783607 C-123.90497034 88.7295635 -125.96513016 86.65935096 -128.0216608 84.58519554 C-129.00972025 83.59127999 -130.00138391 82.60093424 -130.99664783 81.61423302 C-132.38304327 80.23580744 -133.75161333 78.83952253 -135.11922359 77.4424572 C-135.90276714 76.65191948 -136.68631069 75.86138176 -137.49359798 75.04688835 C-139.04134274 72.85749626 -139.04134274 72.85749626 -138.94785213 70.76161003 C-137.38272856 67.47408388 -134.77765241 65.08176906 -132.22884274 62.54499626 C-131.42736813 61.70098259 -131.42736813 61.70098259 -130.60970211 60.83991814 C-129.02181149 59.24421501 -129.02181149 59.24421501 -126.04134274 56.85749626 C-122.80413042 57.14345938 -121.20118763 58.34156844 -119.0044775 60.64900017 C-118.44031628 61.23275414 -117.87615505 61.8165081 -117.29489803 62.41795158 C-116.69688885 63.05026695 -116.09887966 63.68258232 -115.48274899 64.33405876 C-114.19735546 65.65737746 -112.91153511 66.98028168 -111.62532711 68.30280876 C-109.60721476 70.39552011 -107.59416554 72.49265538 -105.58895016 74.59773064 C-103.64996328 76.62712922 -101.6929039 78.63762937 -99.73274899 80.64655876 C-99.13676403 81.28292259 -98.54077908 81.91928642 -97.92673397 82.57493401 C-97.07576389 83.44110847 -97.07576389 83.44110847 -96.2076025 84.32478142 C-95.71558849 84.83916771 -95.22357449 85.353554 -94.71665096 85.88352776 C-93.02054179 87.08737591 -93.02054179 87.08737591 -90.67658901 86.63036156 C-87.64174328 85.74030169 -86.40650036 84.70597127 -84.20209408 82.46562004 C-83.47738415 81.73918297 -82.75267422 81.0127459 -82.00600338 80.26429558 C-81.22610043 79.4621563 -80.44619747 78.66001701 -79.64266109 77.83357048 C-78.80954906 76.99301109 -77.97643703 76.15245171 -77.11807919 75.28642082 C-74.83849687 72.98341931 -72.56789537 70.67196023 -70.30019736 68.35726881 C-67.92445315 65.93787056 -65.53533439 63.53176941 -63.14694881 61.12486076 C-56.04618395 53.96406482 -48.96666282 46.78236035 -41.89089108 39.59687614 C-36.38715826 34.0083015 -30.87783854 28.42548637 -25.35117918 22.85957158 C-22.97264366 20.46304688 -20.59961317 18.06154192 -18.23828602 15.64805031 C-15.60678042 12.9617271 -12.96058408 10.29074011 -10.31062984 7.62263298 C-9.52870266 6.81644524 -8.74677547 6.01025749 -7.94115353 5.17963982 C-7.21926342 4.45884239 -6.49737331 3.73804497 -5.75360775 2.9954052 C-5.12959544 2.36158865 -4.50558313 1.7277721 -3.86266136 1.07474899 C-2.04134274 -0.14250374 -2.04134274 -0.14250374 0 0 Z " fill="#FAEB33" transform="translate(244.04134273529053,78.14250373840332)"/>
<path d="M0 0 C1.91832138 -0.00422974 1.91832138 -0.00422974 3.87539673 -0.00854492 C5.30584731 -0.00660032 6.73629775 -0.00455214 8.16674805 -0.00241089 C9.66279137 -0.00376487 11.15883436 -0.00554479 12.65487671 -0.00772095 C16.72914312 -0.01229561 20.80338433 -0.01050559 24.87765121 -0.00734186 C29.13197653 -0.00481843 33.38629961 -0.00715575 37.640625 -0.00872803 C44.78638091 -0.01054977 51.93212651 -0.00814329 59.07788086 -0.00338745 C67.35135252 0.00205518 75.62479954 0.00029253 83.89827061 -0.00521386 C90.98869571 -0.00974485 98.07911337 -0.0103956 105.16953945 -0.00777519 C109.41003766 -0.00621233 113.65052426 -0.00601887 117.89102173 -0.00931168 C121.87673731 -0.01219019 125.86242097 -0.01021507 129.84813309 -0.00441742 C131.3151405 -0.00308971 132.78215058 -0.00348412 134.24915695 -0.00568008 C136.24341489 -0.00839114 138.23767866 -0.00439716 140.23193359 0 C141.90995308 0.00056554 141.90995308 0.00056554 143.62187195 0.0011425 C146.1159668 0.12698364 146.1159668 0.12698364 147.1159668 1.12698364 C147.21489619 3.29179161 147.2456778 5.45992149 147.2409668 7.62698364 C147.24354492 8.81292114 147.24612305 9.99885864 147.2487793 11.22073364 C147.1159668 14.12698364 147.1159668 14.12698364 146.1159668 15.12698364 C144.1566581 15.22584181 142.19373457 15.2533061 140.23193359 15.25396729 C138.31361221 15.25819702 138.31361221 15.25819702 136.35653687 15.26251221 C134.92608629 15.26056761 133.49563585 15.25851942 132.06518555 15.25637817 C130.56914223 15.25773216 129.07309924 15.25951208 127.57705688 15.26168823 C123.50279047 15.2662629 119.42854926 15.26447287 115.35428238 15.26130915 C111.09995707 15.25878571 106.84563398 15.26112304 102.59130859 15.26269531 C95.44555268 15.26451706 88.29980708 15.26211057 81.15405273 15.25735474 C72.88058107 15.25191211 64.60713405 15.25367476 56.33366299 15.25918114 C49.24323789 15.26371213 42.15282022 15.26436289 35.06239414 15.26174247 C30.82189594 15.26017962 26.58140933 15.25998615 22.34091187 15.26327896 C18.35519629 15.26615747 14.36951262 15.26418236 10.38380051 15.2583847 C8.91679309 15.257057 7.44978301 15.2574514 5.98277664 15.25964737 C3.98851871 15.26235843 1.99425493 15.25836445 0 15.25396729 C-1.11867966 15.25359026 -2.23735931 15.25321323 -3.38993835 15.25282478 C-5.8840332 15.12698364 -5.8840332 15.12698364 -6.8840332 14.12698364 C-6.9829626 11.96217568 -7.01374421 9.79404579 -7.0090332 7.62698364 C-7.01161133 6.44104614 -7.01418945 5.25510864 -7.0168457 4.03323364 C-6.78383611 -1.06556457 -4.57200166 0.00154089 0 0 Z " fill="#6BA9C8" transform="translate(278.884033203125,365.8730163574219)"/>
<path d="M0 0 C1.91832138 -0.00422974 1.91832138 -0.00422974 3.87539673 -0.00854492 C5.30584731 -0.00660032 6.73629775 -0.00455214 8.16674805 -0.00241089 C9.66279137 -0.00376487 11.15883436 -0.00554479 12.65487671 -0.00772095 C16.72914312 -0.01229561 20.80338433 -0.01050559 24.87765121 -0.00734186 C29.13197653 -0.00481843 33.38629961 -0.00715575 37.640625 -0.00872803 C44.78638091 -0.01054977 51.93212651 -0.00814329 59.07788086 -0.00338745 C67.35135252 0.00205518 75.62479954 0.00029253 83.89827061 -0.00521386 C90.98869571 -0.00974485 98.07911337 -0.0103956 105.16953945 -0.00777519 C109.41003766 -0.00621233 113.65052426 -0.00601887 117.89102173 -0.00931168 C121.87673731 -0.01219019 125.86242097 -0.01021507 129.84813309 -0.00441742 C131.3151405 -0.00308971 132.78215058 -0.00348412 134.24915695 -0.00568008 C136.24341489 -0.00839114 138.23767866 -0.00439716 140.23193359 0 C141.90995308 0.00056554 141.90995308 0.00056554 143.62187195 0.0011425 C146.1159668 0.12698364 146.1159668 0.12698364 147.1159668 1.12698364 C147.21489619 3.29179161 147.2456778 5.45992149 147.2409668 7.62698364 C147.24354492 8.81292114 147.24612305 9.99885864 147.2487793 11.22073364 C147.1159668 14.12698364 147.1159668 14.12698364 146.1159668 15.12698364 C144.1566581 15.22584181 142.19373457 15.2533061 140.23193359 15.25396729 C138.31361221 15.25819702 138.31361221 15.25819702 136.35653687 15.26251221 C134.92608629 15.26056761 133.49563585 15.25851942 132.06518555 15.25637817 C130.56914223 15.25773216 129.07309924 15.25951208 127.57705688 15.26168823 C123.50279047 15.2662629 119.42854926 15.26447287 115.35428238 15.26130915 C111.09995707 15.25878571 106.84563398 15.26112304 102.59130859 15.26269531 C95.44555268 15.26451706 88.29980708 15.26211057 81.15405273 15.25735474 C72.88058107 15.25191211 64.60713405 15.25367476 56.33366299 15.25918114 C49.24323789 15.26371213 42.15282022 15.26436289 35.06239414 15.26174247 C30.82189594 15.26017962 26.58140933 15.25998615 22.34091187 15.26327896 C18.35519629 15.26615747 14.36951262 15.26418236 10.38380051 15.2583847 C8.91679309 15.257057 7.44978301 15.2574514 5.98277664 15.25964737 C3.98851871 15.26235843 1.99425493 15.25836445 0 15.25396729 C-1.11867966 15.25359026 -2.23735931 15.25321323 -3.38993835 15.25282478 C-5.8840332 15.12698364 -5.8840332 15.12698364 -6.8840332 14.12698364 C-6.9829626 11.96217568 -7.01374421 9.79404579 -7.0090332 7.62698364 C-7.01161133 6.44104614 -7.01418945 5.25510864 -7.0168457 4.03323364 C-6.78383611 -1.06556457 -4.57200166 0.00154089 0 0 Z " fill="#6BA9C8" transform="translate(278.884033203125,305.8730163574219)"/>
<path d="M0 0 C1.0264563 -0.00281982 2.0529126 -0.00563965 3.11047363 -0.00854492 C4.8139093 -0.00550858 4.8139093 -0.00550858 6.55175781 -0.00241089 C7.74023315 -0.00416321 8.9287085 -0.00591553 10.15319824 -0.00772095 C13.42171057 -0.01137906 16.6901827 -0.01050607 19.95869446 -0.00734186 C23.37220345 -0.00481783 26.78570966 -0.00715592 30.19921875 -0.00872803 C35.93262213 -0.0105496 41.66601264 -0.00814375 47.39941406 -0.00338745 C54.03694057 0.00205515 60.67443637 0.00029248 67.31196213 -0.00521386 C73.00112548 -0.00974535 78.69027955 -0.01039536 84.37944412 -0.00777519 C87.78157302 -0.00621261 91.18368745 -0.00601811 94.58581543 -0.00931168 C98.37656769 -0.01183645 102.16726004 -0.00800007 105.95800781 -0.00241089 C107.66144348 -0.00544724 107.66144348 -0.00544724 109.39929199 -0.00854492 C110.42574829 -0.0057251 111.45220459 -0.00290527 112.50976562 0 C113.40721497 0.00037703 114.30466431 0.00075405 115.22930908 0.0011425 C117.25488281 0.12698364 117.25488281 0.12698364 118.25488281 1.12698364 C118.35381221 3.29179161 118.38459382 5.45992149 118.37988281 7.62698364 C118.38375 9.40588989 118.38375 9.40588989 118.38769531 11.22073364 C118.25488281 14.12698364 118.25488281 14.12698364 117.25488281 15.12698364 C115.67565552 15.22509499 114.09203748 15.25330256 112.50976562 15.25396729 C111.48330933 15.25678711 110.45685303 15.25960693 109.39929199 15.26251221 C108.26366821 15.26048798 107.12804443 15.25846375 105.95800781 15.25637817 C104.76953247 15.25813049 103.58105713 15.25988281 102.35656738 15.26168823 C99.08805505 15.26534635 95.81958293 15.26447336 92.55107117 15.26130915 C89.13756218 15.25878511 85.72405596 15.26112321 82.31054688 15.26269531 C76.5771435 15.26451688 70.84375299 15.26211103 65.11035156 15.25735474 C58.47282506 15.25191214 51.83532926 15.2536748 45.1978035 15.25918114 C39.50864015 15.26371264 33.81948607 15.26436264 28.1303215 15.26174247 C24.72819261 15.2601799 21.32607817 15.2599854 17.9239502 15.26327896 C14.13319793 15.26580374 10.34250558 15.26196735 6.55175781 15.25637817 C5.41613403 15.2584024 4.28051025 15.26042664 3.11047363 15.26251221 C2.08401733 15.25969238 1.05756104 15.25687256 0 15.25396729 C-0.89744934 15.25359026 -1.79489868 15.25321323 -2.71954346 15.25282478 C-4.74511719 15.12698364 -4.74511719 15.12698364 -5.74511719 14.12698364 C-5.84404658 11.96217568 -5.87482819 9.79404579 -5.87011719 7.62698364 C-5.87269531 6.44104614 -5.87527344 5.25510864 -5.87792969 4.03323364 C-5.66417711 -0.64417575 -4.23768421 0.00178028 0 0 Z " fill="#6BA9C8" transform="translate(277.7451171875,335.8730163574219)"/>
<path d="M0 0 C1.88771057 1.27079773 1.88771057 1.27079773 3.71704102 2.9675293 C4.40814972 3.60451752 5.09925842 4.24150574 5.81130981 4.89779663 C9.67380129 8.60766048 13.49508555 12.35280522 17.27734375 16.14453125 C18.5552755 17.42102791 18.5552755 17.42102791 19.85902405 18.72331238 C21.644305 20.50791706 23.42834072 22.29376824 25.21118164 24.08081055 C27.95019661 26.82522162 30.69455952 29.56420432 33.43945312 32.30273438 C35.17740442 34.04134577 36.91504586 35.78026695 38.65234375 37.51953125 C39.47516342 38.34032669 40.29798309 39.16112213 41.14573669 40.00679016 C41.90064896 40.76485458 42.65556122 41.52291901 43.43334961 42.30395508 C44.09983017 42.97123123 44.76631073 43.63850739 45.45298767 44.32600403 C48.31494618 47.42288111 48.61946758 50.29878074 48.6328125 54.40234375 C47.33788749 59.717931 42.85722296 63.33410754 39 67 C32.30470134 61.50280742 26.26303509 55.39046848 20.16015625 49.2578125 C19.02694801 48.12273594 17.89351638 46.98788237 16.75987244 45.85324097 C13.79691665 42.88649256 10.83697807 39.91675198 7.87768555 36.9463501 C4.84933144 33.9077114 1.81809501 30.87195091 -1.21289062 27.8359375 C-7.14473089 21.8934174 -13.07338261 15.947729 -19 10 C-18.03830735 8.87323088 -17.07593809 7.74703923 -16.11328125 6.62109375 C-15.57743408 5.99388428 -15.04158691 5.3666748 -14.48950195 4.72045898 C-10.23189029 -0.19732325 -6.40226194 -1.32724261 0 0 Z " fill="#034C66" transform="translate(443,21)"/>
<path d="M0 0 C4.10108886 1.62156024 6.83148167 4.5767703 9.859375 7.6640625 C10.40861633 8.21613373 10.95785767 8.76820496 11.52374268 9.33700562 C13.27059293 11.09501815 15.01034601 12.8598689 16.75 14.625 C17.93573591 15.8207708 19.1219288 17.01608865 20.30859375 18.2109375 C23.21105085 21.13540253 26.1071641 24.06601874 29 27 C26.07404984 33.11214298 21.12564139 38.01995824 15 41 C11.74067945 42.02619752 8.76645471 42.11577901 5.359375 42.09765625 C4.28945312 42.09443359 3.21953125 42.09121094 2.1171875 42.08789062 C1.00601563 42.07951172 -0.10515625 42.07113281 -1.25 42.0625 C-2.93996094 42.05573242 -2.93996094 42.05573242 -4.6640625 42.04882812 C-7.44276217 42.03705397 -10.22135409 42.0206084 -13 42 C-13.11710979 38.00025019 -13.18755489 34.00094719 -13.25 30 C-13.28351563 28.87464844 -13.31703125 27.74929688 -13.3515625 26.58984375 C-13.45186295 18.01415547 -12.23195098 12.7670422 -6.640625 6.25 C-5.45726562 5.13625 -5.45726562 5.13625 -4.25 4 C-3.45078125 3.236875 -2.6515625 2.47375 -1.828125 1.6875 C-1.22484375 1.130625 -0.6215625 0.57375 0 0 Z " fill="#F9EA33" transform="translate(149,334)"/>
<path d="M0 0 C1.75539345 0.00333092 1.75539345 0.00333092 3.54624939 0.00672913 C4.51207191 0.00651009 4.51207191 0.00651009 5.49740601 0.00628662 C7.63473327 0.00698567 9.77197438 0.01477761 11.9092865 0.02259827 C13.3875931 0.02446248 14.86590032 0.02588637 16.34420776 0.02688599 C20.24211827 0.03071093 24.13999174 0.040541 28.03788757 0.05158997 C32.01259358 0.0618046 35.98730554 0.06638372 39.96202087 0.07142639 C47.76607425 0.0821633 55.57009707 0.09923942 63.37413025 0.12025452 C61.99753192 1.77217252 60.61282182 3.41782921 59.19396973 5.03359985 C57.96833986 6.43892506 56.7772375 7.87503264 55.62057495 9.33764648 C51.96802106 13.58829931 49.38925054 15.60430097 43.70835876 16.04432678 C41.55629229 16.04976987 39.40379993 16.01173659 37.2530365 15.93666077 C36.11253342 15.92771286 34.97203033 15.91876495 33.79696655 15.9095459 C30.17519252 15.87157582 26.55732093 15.77735803 22.93663025 15.68275452 C20.4763871 15.6511818 18.01609582 15.62314923 15.55577087 15.59877014 C11.08129592 15.54035773 6.60758868 15.47418403 2.13414001 15.36073303 C0.78800377 15.32786949 0.78800377 15.32786949 -0.58532715 15.29434204 C-2.62586975 15.12025452 -2.62586975 15.12025452 -3.62586975 14.12025452 C-3.72479915 11.95544655 -3.75558076 9.78731667 -3.75086975 7.62025452 C-3.75344788 6.43431702 -3.756026 5.24837952 -3.75868225 4.02650452 C-3.58217221 0.16404941 -3.58217221 0.16404941 0 0 Z " fill="#6CA9C8" transform="translate(275.62586975097656,115.87974548339844)"/>
<path d="M0 0 C1.54485233 0.03160036 3.08978212 0.0596269 4.63476562 0.08398438 C15.81615215 0.31615215 15.81615215 0.31615215 17.0625 1.5625 C17.1614294 3.72730797 17.192211 5.89543785 17.1875 8.0625 C17.19136719 9.84140625 17.19136719 9.84140625 17.1953125 11.65625 C17.0625 14.5625 17.0625 14.5625 16.0625 15.5625 C14.58895652 15.65554018 13.11099409 15.67996265 11.63452148 15.67602539 C10.69362167 15.67594986 9.75272186 15.67587433 8.78330994 15.67579651 C7.76040359 15.67063522 6.73749725 15.66547394 5.68359375 15.66015625 C4.64179459 15.6587413 3.59999542 15.65732635 2.52662659 15.65586853 C-0.81561094 15.6502508 -4.15778257 15.6376953 -7.5 15.625 C-9.75976466 15.61998728 -12.01953037 15.61542398 -14.27929688 15.61132812 C-19.83205391 15.60027561 -25.38477225 15.58352024 -30.9375 15.5625 C-30.54285049 15.10826157 -30.14820099 14.65402313 -29.74159241 14.1860199 C-26.35027787 10.26271876 -26.35027787 10.26271876 -23.19702148 6.14868164 C-17.08230495 -1.56694441 -8.94391738 -0.37476912 0 0 Z " fill="#6CA9C7" transform="translate(408.9375,175.4375)"/>
<path d="M0 0 C0.99 0.33 1.98 0.66 3 1 C-63.90193494 67.90193494 -130.80386988 134.80386988 -242 246 C-242 243 -242 243 -240.56534809 241.19390327 C-239.54579496 240.17687199 -239.54579496 240.17687199 -238.5056448 239.13929462 C-237.33647413 237.96208929 -237.33647413 237.96208929 -236.14368385 236.76110202 C-234.83765106 235.46920019 -234.83765106 235.46920019 -233.50523376 234.15119934 C-232.13444328 232.7776223 -232.13444328 232.7776223 -230.73596007 231.37629622 C-228.19082953 228.82638023 -225.636408 226.28594985 -223.08044064 223.74690282 C-220.32843973 221.0098696 -217.58508015 218.26420006 -214.84069824 215.51953125 C-210.08024587 210.76091972 -205.3143745 206.00779143 -200.54487419 201.25824928 C-193.64079343 194.38295365 -186.74546719 187.49893229 -179.85235614 180.61264058 C-168.6586052 169.43034581 -157.45853626 158.25440186 -146.25415039 147.08276367 C-135.38672845 136.24706396 -124.5209951 125.40967789 -113.65844727 114.5690918 C-112.99033108 113.90232919 -112.3222149 113.23556658 -111.63385277 112.54859904 C-104.3354521 105.26484803 -97.0377566 97.98039107 -89.74090672 90.69508648 C-89.09892139 90.05411953 -88.45693606 89.41315259 -87.79549663 88.7527624 C-85.22843314 86.18975149 -82.66137772 83.6267325 -80.09441275 81.06362291 C-72.5853682 73.56589029 -65.0741457 66.0703555 -57.55894107 58.57879706 C-52.83987808 53.87447479 -48.12245782 49.16850978 -43.40630662 44.4612684 C-40.68682807 41.74709447 -37.96649738 39.03378849 -35.24390602 36.32273674 C-32.28776496 33.37911813 -29.33555211 30.43159007 -26.38365173 27.48371887 C-25.52857826 26.6336046 -24.67350478 25.78349032 -23.79251999 24.90761501 C-19.52252108 20.6368616 -15.40476008 16.29929563 -11.48173624 11.706505 C-9.28828008 9.18031728 -6.9444759 6.84934609 -4.5625 4.5 C-3.26505859 3.21609375 -3.26505859 3.21609375 -1.94140625 1.90625 C-1.30074219 1.2771875 -0.66007813 0.648125 0 0 Z " fill="#ED900A" transform="translate(423,31)"/>
<path d="M0 0 C1.51815699 0.00015911 3.0363194 0.00585313 4.55444336 0.01586914 C5.35208603 0.01728409 6.1497287 0.01869904 6.97154236 0.02015686 C9.52916146 0.02577223 12.08669429 0.03832727 14.64428711 0.05102539 C16.37410356 0.05603841 18.10392137 0.06060166 19.83374023 0.06469727 C24.08312264 0.07574664 28.33244023 0.09302153 32.58178711 0.11352539 C32.1834668 0.56735596 31.78514648 1.02118652 31.37475586 1.48876953 C27.99778355 5.36539193 27.99778355 5.36539193 25.01928711 9.54711914 C23.04025317 12.30593547 21.65001787 13.55367646 18.58178711 15.11352539 C11.4190294 16.15899932 3.76430101 15.97451799 -3.41821289 15.11352539 C-4.41821289 14.11352539 -4.41821289 14.11352539 -4.55102539 11.20727539 C-4.54844727 10.02133789 -4.54586914 8.83540039 -4.54321289 7.61352539 C-4.54579102 6.42758789 -4.54836914 5.24165039 -4.55102539 4.01977539 C-4.35979535 -0.16478787 -4.27749844 0.14206391 0 0 Z " fill="#6CA9C7" transform="translate(276.418212890625,145.886474609375)"/>
<path d="M0 0 C1.4540625 0.0309375 1.4540625 0.0309375 2.9375 0.0625 C1.96183888 1.23209987 0.981875 2.39811177 0 3.5625 C-0.54527344 4.2121875 -1.09054687 4.861875 -1.65234375 5.53125 C-2.11769531 6.0365625 -2.58304687 6.541875 -3.0625 7.0625 C-3.3925 7.0625 -3.7225 7.0625 -4.0625 7.0625 C-4.10504356 5.06295254 -4.10330783 3.06208364 -4.0625 1.0625 C-3.0625 0.0625 -3.0625 0.0625 0 0 Z " fill="#71A8C0" transform="translate(276.0625,175.9375)"/>
</svg>
